<svg xmlns="http://www.w3.org/2000/svg" version="1.1" xmlns:xlink="http://www.w3.org/1999/xlink" xmlns:svgjs="http://svgjs.com/svgjs" width="1440" height="560" preserveAspectRatio="none" viewBox="0 0 1440 560">
    <g mask="url(&quot;#SvgjsMask1435&quot;)" fill="none">
        <rect width="1440" height="560" x="0" y="0" fill="url(#SvgjsLinearGradient1436)"></rect>
        <path d="M915.0306570384531 68.04917033243939L909.6055762221424 223.40315866859848 1064.9595645583015 228.82823948490915 1070.3846453746123 73.47425114875007z" fill="rgba(28, 83, 142, 0.4)" class="triangle-float3"></path>
        <path d="M38.036,337.71C67.142,339.974,98.991,334.045,114.705,309.441C131.376,283.338,126.905,249.632,111.42,222.808C95.933,195.98,69.009,177.147,38.036,176.626C6.175,176.09,-26.01,191.515,-39.753,220.265C-52.234,246.375,-36.41,274.803,-20.429,298.931C-6.588,319.828,13.046,335.767,38.036,337.71" fill="rgba(28, 83, 142, 0.4)" class="triangle-float3"></path>
        <path d="M730.4614890752923 454.5911785190956L777.9305471729309 308.4964398867777 631.835808540613 261.02738178913904 584.3667504429744 407.12212042145694z" fill="rgba(28, 83, 142, 0.4)" class="triangle-float1"></path>
        <path d="M71.369,535.232C86.871,536.457,103.892,533.932,112.492,520.977C121.849,506.882,120.552,488.373,112.267,473.622C103.801,458.549,88.642,447.052,71.369,447.761C55.015,448.432,42.768,461.899,35.897,476.755C30.087,489.316,32.971,503.427,40.149,515.26C47.016,526.581,58.169,534.189,71.369,535.232" fill="rgba(28, 83, 142, 0.4)" class="triangle-float3"></path>
        <path d="M521.9658605569846 178.20144051180057L554.1062516584321 261.9300219051635 637.8348330517952 229.78963080371594 605.6944419503475 146.06104941035298z" fill="rgba(28, 83, 142, 0.4)" class="triangle-float1"></path>
        <path d="M877.825,172.148C909.4,171.637,934.851,149.122,950.335,121.6C965.477,94.686,970.191,62.066,954.828,35.278C939.396,8.37,908.842,-4.459,877.825,-4.832C846.062,-5.214,813.793,6.092,797.546,33.387C780.972,61.232,784.903,95.968,801.13,124.016C817.33,152.017,845.48,172.672,877.825,172.148" fill="rgba(28, 83, 142, 0.4)" class="triangle-float3"></path>
        <path d="M321.2456796338077 336.4781731766998L176.6945462170763 419.9348089665152 260.1511820068917 564.4859423832465 404.7023154236231 481.0293065934312z" fill="rgba(28, 83, 142, 0.4)" class="triangle-float1"></path>
        <path d="M945.974,374.718C982.817,376.988,1020.57,362.396,1039.432,330.666C1058.651,298.334,1055.913,256.54,1034.678,225.494C1015.694,197.739,979.6,194.06,945.974,194.027C912.267,193.994,874.257,196.386,856.967,225.32C839.391,254.732,853.004,290.824,870.54,320.259C887.552,348.814,912.798,372.674,945.974,374.718" fill="rgba(28, 83, 142, 0.4)" class="triangle-float3"></path>
        <path d="M1084.1631529214856 411.8457426783085L1144.4351247767877 520.5792582096487 1253.168640308128 460.3072863543467 1192.896668452826 351.5737708230064z" fill="rgba(28, 83, 142, 0.4)" class="triangle-float2"></path>
        <path d="M519.9302422217569 371.57566750809417L436.2624612697372 397.1554751946891 461.8422689563321 480.82325614670884 545.5100499083518 455.2434484601139z" fill="rgba(28, 83, 142, 0.4)" class="triangle-float1"></path>
    </g>
    <defs>
        <mask id="SvgjsMask1435">
            <rect width="1440" height="560" fill="#ffffff"></rect>
        </mask>
        <linearGradient x1="50%" y1="100%" x2="50%" y2="0%" gradientUnits="userSpaceOnUse" id="SvgjsLinearGradient1436">
            <stop stop-color="#0e2a47" offset="0"></stop>
            <stop stop-color="rgba(117, 60, 124, 0.1)" offset="1"></stop>
        </linearGradient>
        <style>
            @keyframes float1 {
                0%{transform: translate(0, 0)}
                50%{transform: translate(-10px, 0)}
                100%{transform: translate(0, 0)}
            }

            .triangle-float1 {
                animation: float1 5s infinite;
            }

            @keyframes float2 {
                0%{transform: translate(0, 0)}
                50%{transform: translate(-5px, -5px)}
                100%{transform: translate(0, 0)}
            }

            .triangle-float2 {
                animation: float2 4s infinite;
            }

            @keyframes float3 {
                0%{transform: translate(0, 0)}
                50%{transform: translate(0, -10px)}
                100%{transform: translate(0, 0)}
            }

            .triangle-float3 {
                animation: float3 6s infinite;
            }
        </style>
    </defs>
</svg>