<svg xmlns="http://www.w3.org/2000/svg" version="1.1" xmlns:xlink="http://www.w3.org/1999/xlink" xmlns:svgjs="http://svgjs.com/svgjs" width="1440" height="560" preserveAspectRatio="none" viewBox="0 0 1440 560">
    <g mask="url(&quot;#SvgjsMask1000&quot;)" fill="none">
        <rect width="1440" height="560" x="0" y="0" fill="#0e2a47"></rect>
        <path d="M283.2910254799084 302.6652166148025L194.5202555485542 228.17769630607998 120.03273523983168 316.9484662374342 208.8035051711859 391.4359865461567z" fill="rgba(28, 83, 142, 0.4)" class="triangle-float3"></path>
        <path d="M413.7805517118236 24.613295467604146L426.8454190549088 150.06719606996404 517.1647296054024 86.82493397660461z" fill="rgba(28, 83, 142, 0.4)" class="triangle-float1"></path>
        <path d="M513.7493074508403-24.597258725527805L539.9688540638442 80.56359891586246 645.1297117052345 54.34405230285857 618.9101650922306-50.816805338531694z" fill="rgba(28, 83, 142, 0.4)" class="triangle-float3"></path>
        <path d="M553.6495101920082 388.3898712191035L669.4686833583797 291.20604573194356 456.46568470484823 272.5706980527319z" fill="rgba(28, 83, 142, 0.4)" class="triangle-float3"></path>
        <path d="M506.137,330.702C532.494,330.855,551.331,308.543,564.694,285.825C578.308,262.68,589.452,234.921,576.221,211.555C562.859,187.958,533.229,181.25,506.137,182.414C481.273,183.482,457.898,195.432,445.761,217.159C433.903,238.386,437.329,263.685,448.745,285.153C461.035,308.266,479.96,330.55,506.137,330.702" fill="rgba(28, 83, 142, 0.4)" class="triangle-float3"></path>
        <path d="M1155.8433586828191 278.6273404794014L1160.820440940132 139.89328235585845 1052.6937672647916 194.98657436262357z" fill="rgba(28, 83, 142, 0.4)" class="triangle-float3"></path>
    </g>
    <defs>
        <mask id="SvgjsMask1000">
            <rect width="1440" height="560" fill="#ffffff"></rect>
        </mask>
        <style>
            @keyframes float1 {
                0%{transform: translate(0, 0)}
                50%{transform: translate(-10px, 0)}
                100%{transform: translate(0, 0)}
            }

            .triangle-float1 {
                animation: float1 5s infinite;
            }

            @keyframes float2 {
                0%{transform: translate(0, 0)}
                50%{transform: translate(-5px, -5px)}
                100%{transform: translate(0, 0)}
            }

            .triangle-float2 {
                animation: float2 4s infinite;
            }

            @keyframes float3 {
                0%{transform: translate(0, 0)}
                50%{transform: translate(0, -10px)}
                100%{transform: translate(0, 0)}
            }

            .triangle-float3 {
                animation: float3 6s infinite;
            }
        </style>
    </defs>
</svg>